<?xml version="1.0" encoding="utf-8"?>
<!-- Generator: Adobe Illustrator 21.0.2, SVG Export Plug-In . SVG Version: 6.00 Build 0)  -->
<!DOCTYPE svg PUBLIC "-//W3C//DTD SVG 1.1//EN" "http://www.w3.org/Graphics/SVG/1.1/DTD/svg11.dtd">
<svg version="1.1" id="Layer_1" xmlns="http://www.w3.org/2000/svg" xmlns:xlink="http://www.w3.org/1999/xlink" x="0px" y="0px"
	 viewBox="0 0 172.8 59" style="enable-background:new 0 0 172.8 59;" xml:space="preserve">
<style type="text/css">
	.st0{fill:#FFFFFF;}
</style>
<g>
	<g>
		<path class="st0" d="M19,21.8c0.3-0.6,0.9-1,1.5-1c0.7,0,1.2,0.4,1.5,1.1l6.5,17.9L35,15.1c0.2-0.7,0.8-1.2,1.5-1.2
			c0.7,0,1.4,0.4,1.6,1.1l6.4,18.7l2.1-4.3c0.3-0.6,0.8-0.9,1.5-0.9h5.7C53.2,15,42.1,4.3,28.6,4.3C14.9,4.3,3.8,15.1,3.4,28.7h12.5
			L19,21.8z"/>
		<path class="st0" d="M45.7,38.7c-0.3,0.6-0.9,0.9-1.6,0.9c-0.7,0-1.2-0.5-1.4-1.1l-5.9-17.3l-6.4,24.5c-0.2,0.7-0.8,1.2-1.5,1.2
			h-0.1c-0.7,0-1.3-0.4-1.5-1.1l-6.9-19.1L18.5,31c-0.3,0.6-0.8,1-1.5,1H3.5c1.2,12.8,12,22.8,25.1,22.8c13.2,0,24-10.1,25.1-23
			h-4.6L45.7,38.7z"/>
	</g>
	<g>
		<path class="st0" d="M70.8,34.6c0.4,2.9,2.9,5.1,7.1,5.1c2.2,0,5-0.8,6.4-2.2l3.8,3.7c-2.5,2.6-6.6,3.9-10.2,3.9
			c-8.2,0-13.1-5.1-13.1-12.7c0-7.2,4.9-12.5,12.7-12.5c8,0,13,4.9,12,14.7H70.8z M83.7,29.7c-0.4-3.1-2.8-4.6-6.2-4.6
			c-3.2,0-5.8,1.5-6.7,4.6H83.7z"/>
		<path class="st0" d="M115,41.4c-2.8,2.7-5.7,3.8-9.2,3.8c-6.9,0-12.7-4.2-12.7-12.6s5.8-12.6,12.7-12.6c3.4,0,6,1,8.6,3.5
			l-3.7,3.9c-1.4-1.3-3.1-1.9-4.8-1.9c-4,0-6.9,2.9-6.9,7.1c0,4.5,3.1,7,6.8,7c1.9,0,3.8-0.5,5.2-2L115,41.4z"/>
		<path class="st0" d="M123.5,10.6v13.2c2.1-2.8,4.7-3.6,7.4-3.6c6.8,0,9.8,4.6,9.8,11.6v12.6h-5.9V31.9c0-4.3-2.3-6.2-5.4-6.2
			c-3.5,0-5.9,2.9-5.9,6.5v12.2h-5.9V10.6H123.5z"/>
		<path class="st0" d="M169.4,32.5c0,6.9-4.7,12.4-12.4,12.4c-7.7,0-12.4-5.6-12.4-12.4c0-6.8,4.7-12.4,12.3-12.4
			C164.5,20.1,169.4,25.7,169.4,32.5z M150.5,32.5c0,3.6,2.2,7,6.5,7c4.3,0,6.5-3.4,6.5-7c0-3.6-2.5-7.1-6.5-7.1
			C152.7,25.5,150.5,29,150.5,32.5z"/>
	</g>
</g>
</svg>
