<svg xmlns="http://www.w3.org/2000/svg" xmlns:xlink="http://www.w3.org/1999/xlink" viewBox="0 0 48.9 42"><defs><style>.cls-1,.cls-2,.cls-3{fill:none;}.cls-1{clip-rule:evenodd;}.cls-3{fill-rule:evenodd;}.cls-4{clip-path:url(#clip-path);}.cls-5{clip-path:url(#clip-path-2);}.cls-6{fill:#fff;}.cls-7{clip-path:url(#clip-path-3);}.cls-8{clip-path:url(#clip-path-5);}.cls-9{clip-path:url(#clip-path-7);}</style><clipPath id="clip-path" transform="translate(-17 -24)"><path class="cls-1" d="M22,32.24A3.24,3.24,0,0,1,25.23,29H57.67a3.24,3.24,0,0,1,0,6.47H25.23A3.24,3.24,0,0,1,22,32.24Z"/></clipPath><clipPath id="clip-path-2" transform="translate(-17 -24)"><rect class="cls-2" width="375" height="667"/></clipPath><clipPath id="clip-path-3" transform="translate(-17 -24)"><path class="cls-1" d="M22,44.82a3.24,3.24,0,0,1,3.23-3.24H57.67a3.24,3.24,0,0,1,0,6.47H25.23A3.24,3.24,0,0,1,22,44.82Z"/></clipPath><clipPath id="clip-path-5" transform="translate(-17 -24)"><path class="cls-1" d="M22,57.76a3.23,3.23,0,0,1,3.24-3.24H45.62a3.24,3.24,0,1,1,0,6.47H25.24A3.24,3.24,0,0,1,22,57.76Z"/></clipPath><clipPath id="clip-path-7" transform="translate(-17 -24)"><path class="cls-1" d="M52.17,57.76a3.24,3.24,0,0,1,3.24-3.24h2.19a3.24,3.24,0,1,1,0,6.47H55.41A3.24,3.24,0,0,1,52.17,57.76Z"/></clipPath></defs><title>Asset 1</title><g id="Layer_2" data-name="Layer 2"><g id="Layer_2-2" data-name="Layer 2"><g class="cls-4"><g class="cls-5"><rect class="cls-6" width="48.9" height="16.47"/></g></g><g class="cls-7"><g class="cls-5"><rect class="cls-6" y="12.58" width="48.9" height="16.47"/></g></g><g class="cls-8"><g class="cls-5"><rect class="cls-6" y="25.53" width="36.86" height="16.47"/></g></g><g class="cls-9"><g class="cls-5"><rect class="cls-6" x="30.17" y="25.53" width="18.66" height="16.47"/></g></g><g class="cls-4"><g class="cls-5"><rect class="cls-6" width="48.9" height="16.47"/></g></g><g class="cls-7"><g class="cls-5"><rect class="cls-6" y="12.58" width="48.9" height="16.47"/></g></g><g class="cls-8"><g class="cls-5"><rect class="cls-6" y="25.53" width="36.86" height="16.47"/></g></g><g class="cls-9"><g class="cls-5"><rect class="cls-6" x="30.17" y="25.53" width="18.66" height="16.47"/></g></g></g></g></svg>